<svg width="17" height="20" viewBox="0 0 17 20" fill="none" xmlns="http://www.w3.org/2000/svg">
<path d="M3.59033 -0.00115967C1.63933 -0.00115967 0.0283203 1.47884 0.0283203 3.34284V16.6549C0.0283203 18.5189 1.63933 19.9989 3.59033 19.9989H12.4663C14.4173 19.9989 16.0283 18.5189 16.0283 16.6549C16.0283 16.0039 16.0283 8.85687 16.0283 6.99886C16.0283 6.98886 16.0283 6.97786 16.0283 6.96786C16.0283 3.40484 12.5893 -0.00115967 9.02832 -0.00115967C4.81432 -0.00115967 4.80433 -0.00115967 3.59033 -0.00115967ZM3.59033 1.99885C4.58133 1.99885 5.70232 1.99885 8.02832 1.99885V4.65486C8.02832 6.51887 9.63933 7.99887 11.5903 7.99887H14.0283C14.0283 10.5359 14.0283 16.0709 14.0283 16.6549C14.0283 17.3689 13.3543 17.9989 12.4663 17.9989H3.59033C2.70233 17.9989 2.02832 17.3689 2.02832 16.6549V3.34284C2.02832 2.62884 2.70233 1.99885 3.59033 1.99885ZM10.0283 2.12385C11.8003 2.59385 13.4443 4.23185 13.9033 5.99886H11.5903C10.7013 5.99886 10.0283 5.36886 10.0283 4.65486V2.12385ZM8.02832 9.99887C7.78732 9.99887 7.54033 10.1399 7.43433 10.4049L6.34033 13.1549L5.24731 10.4049C5.11731 10.0809 4.72732 9.93188 4.40332 10.0609C4.07932 10.1909 3.93033 10.5499 4.05933 10.8739L5.74731 15.0929C5.95931 15.6229 6.72233 15.6229 6.93433 15.0929L8.02832 12.3109L9.12231 15.0929C9.33431 15.6229 10.0973 15.6229 10.3093 15.0929L11.9973 10.8739C12.1263 10.5499 11.9773 10.1909 11.6533 10.0609C11.3293 9.93188 10.9393 10.0809 10.8093 10.4049L9.71631 13.1549L8.62231 10.4049C8.51631 10.1399 8.26932 9.99887 8.02832 9.99887Z" fill="#373535"/>
</svg>
