<svg width="38" height="35" viewBox="0 0 38 35" fill="none" xmlns="http://www.w3.org/2000/svg">
<g clip-path="url(#clip0_1_50)">
<path d="M10.9469 0.0251689C10.9469 0.0440431 11.1923 0.20762 11.5006 0.396361C12.0983 0.767553 15.7221 3.05133 16.0115 3.24636C16.194 3.3659 16.1247 3.3659 11.0979 3.39735L5.99561 3.42881L8.63799 5.09603C10.0913 6.01457 11.4943 6.89537 11.7648 7.06524L12.2555 7.36093L21.7304 7.34835L31.2052 7.32947L28.8963 5.86987C27.6191 5.06457 25.0082 3.41623 23.0893 2.20828L19.5976 3.33786e-06H15.2754C12.891 3.33786e-06 10.9469 0.0125861 10.9469 0.0251689Z" fill="#ED151F"/>
<path d="M4.69362 8.61291C4.72507 8.63808 5.62474 9.21689 6.70057 9.89007C7.7764 10.5632 10.1231 12.048 11.9224 13.1805C13.7218 14.3192 15.4645 15.4139 15.7916 15.6152L16.383 15.9801H20.6863C23.0519 15.9801 24.9708 15.955 24.9519 15.9298C24.933 15.8983 23.7565 15.1434 22.3347 14.2437L19.7426 12.6142L24.8135 12.5954C27.6006 12.5891 29.8843 12.5576 29.8843 12.5325C29.8843 12.501 29.8214 12.4444 29.7459 12.4066C29.6642 12.3689 28.2549 11.4881 26.6128 10.45L23.6244 8.55629H14.1307C8.77044 8.55629 4.65587 8.58146 4.69362 8.61291Z" fill="#ED151F"/>
<path d="M1.06958 22.8C1.06958 22.8126 1.95037 23.3537 3.0262 24.008L4.98282 25.197L2.99474 25.2159L1.00666 25.2285L0.994081 29.6325C0.981498 32.0546 0.98779 34.0679 0.994081 34.0993C1.01296 34.1434 2.61097 34.1623 5.61825 34.1623C10.6325 34.1623 10.6891 34.156 11.3434 33.8037C12.0229 33.4325 12.4507 32.7719 12.6143 31.8533C12.6709 31.5576 12.7024 30.9096 12.7087 30.2113V29.0662H10.3179H7.92719V29.8527C7.92719 30.7397 7.86428 30.9788 7.53084 31.3186C7.28547 31.5702 6.87653 31.7023 6.18448 31.7527L5.66229 31.7904V27.2795V22.7748H3.36594C2.10137 22.7748 1.06958 22.7874 1.06958 22.8Z" fill="#1A1512"/>
<path d="M13.8413 28.4686V34.1623H18.4529C22.2906 34.1623 23.1211 34.1434 23.4546 34.0679C24.4738 33.8288 25.0526 33.2689 25.386 32.2119C25.4741 31.9414 25.5055 31.5513 25.5244 30.4629L25.5559 29.0662H23.2029H20.8436L20.8059 29.8527C20.7367 31.2745 20.3844 31.6583 19.0506 31.7527L18.4969 31.7904V27.2795V22.7748H16.1691H13.8413V28.4686Z" fill="#1A1512"/>
<path d="M28.3114 22.844C27.1035 23.0894 26.6757 23.8821 26.6757 25.8891V26.8013L28.7644 26.7887L30.8594 26.7699L30.9098 26.4301C30.9727 25.9583 31.2118 25.5745 31.5389 25.4046C31.7465 25.2977 31.9416 25.2599 32.4512 25.2411L33.0929 25.2159V28.5V31.7904L32.5455 31.7464C31.7843 31.6897 31.5515 31.6142 31.281 31.3437C30.9727 31.0354 30.8846 30.7209 30.8406 29.8086L30.8091 29.0662H28.7392H26.6631L26.6883 30.6894C26.7134 32.149 26.7323 32.3503 26.8518 32.7278C27.0532 33.3255 27.3174 33.6464 27.8333 33.9106L28.2674 34.1308L33.0048 34.1497L37.7485 34.1685V29.5884C37.7485 25.7632 37.7296 24.9454 37.6541 24.6119C37.4277 23.6682 36.981 23.2215 35.9555 22.9195C35.622 22.8252 35.1879 22.8126 32.0863 22.8C30.1674 22.7937 28.4687 22.8126 28.3114 22.844Z" fill="#1A1512"/>
</g>
<defs>
<clipPath id="clip0_1_50">
<rect width="38" height="34.5397" fill="white"/>
</clipPath>
</defs>
</svg>
